<?xml version="1.0" encoding="UTF-8" standalone="no"?>
<!-- Created with Inkscape (http://www.inkscape.org/) -->

<svg
   width="186.04585mm"
   height="109.08027mm"
   viewBox="0 0 186.04585 109.08027"
   version="1.1"
   id="svg1"
   xmlns="http://www.w3.org/2000/svg"
   xmlns:svg="http://www.w3.org/2000/svg">
  <defs
     id="defs1" />
  <g
     id="layer1"
     transform="translate(-11.27539,-83.181463)">
    <g
       id="g7"
       transform="matrix(2.317371,0,0,2.317371,-76.371461,57.071635)"
       style="fill:#666666">
      <path
         style="fill:#666666;fill-opacity:1;stroke:none;stroke-width:1.5;stroke-linecap:round;stroke-linejoin:round;stroke-dasharray:none;stroke-opacity:1"
         d="m 69.637635,26.588915 c -6.911913,0.127762 -16.682742,4.432016 -16.459804,11.033496 0.260737,7.720785 8.300706,11.731667 20.077345,11.576126 14.909931,-0.196925 35.890264,4.222999 43.953104,-8.320341 2.04793,-3.185959 0.35242,-8.809396 -2.71315,-11.033495 C 106.61629,24.12854 95.027257,33.265804 85.373934,32.015226 79.871383,31.302377 75.18522,26.486372 69.637635,26.588915 Z"
         id="path3" />
      <ellipse
         style="fill:#666666;fill-opacity:1;stroke:none;stroke-width:1.5;stroke-linecap:round;stroke-linejoin:round;stroke-dasharray:none;stroke-opacity:1"
         id="path4"
         cx="53.606113"
         cy="19.099754"
         rx="6.1498175"
         ry="4.6123629"
         transform="rotate(6.7098368)" />
      <ellipse
         style="fill:#666666;fill-opacity:1;stroke:none;stroke-width:1.5;stroke-linecap:round;stroke-linejoin:round;stroke-dasharray:none;stroke-opacity:1"
         id="ellipse4"
         cx="49.020058"
         cy="29.656134"
         rx="6.1498175"
         ry="4.6123629"
         transform="rotate(6.7098368)" />
      <ellipse
         style="fill:#666666;fill-opacity:1;stroke:none;stroke-width:1.5;stroke-linecap:round;stroke-linejoin:round;stroke-dasharray:none;stroke-opacity:1"
         id="ellipse5"
         cx="51.503288"
         cy="39.927204"
         rx="6.1498175"
         ry="4.6123629"
         transform="rotate(6.7098368)" />
      <ellipse
         style="fill:#666666;fill-opacity:1;stroke:none;stroke-width:1.5;stroke-linecap:round;stroke-linejoin:round;stroke-dasharray:none;stroke-opacity:1"
         id="ellipse6"
         cx="41.415459"
         cy="64.995224"
         rx="6.1498175"
         ry="4.6123629"
         transform="rotate(-13.397741)" />
      <ellipse
         style="fill:#666666;fill-opacity:1;stroke:none;stroke-width:1.5;stroke-linecap:round;stroke-linejoin:round;stroke-dasharray:none;stroke-opacity:1"
         id="ellipse7"
         cx="57.342491"
         cy="-29.669611"
         rx="6.1498175"
         ry="4.6123629"
         transform="rotate(44.54876)" />
    </g>
    <g
       id="g12"
       transform="matrix(2.317371,0,0,2.317371,-79.305581,51.528964)">
      <path
         style="fill:#999999;fill-opacity:1;stroke:none;stroke-width:1.5;stroke-linecap:round;stroke-linejoin:round;stroke-dasharray:none;stroke-opacity:1"
         d="m 69.637635,26.588915 c -6.911913,0.127762 -16.682742,4.432016 -16.459804,11.033496 0.260737,7.720785 8.300706,11.731667 20.077345,11.576126 14.909931,-0.196925 35.890264,4.222999 43.953104,-8.320341 2.04793,-3.185959 0.35242,-8.809396 -2.71315,-11.033495 C 106.61629,24.12854 95.027257,33.265804 85.373934,32.015226 79.871383,31.302377 75.18522,26.486372 69.637635,26.588915 Z"
         id="path7" />
      <ellipse
         style="fill:#999999;fill-opacity:1;stroke:none;stroke-width:1.5;stroke-linecap:round;stroke-linejoin:round;stroke-dasharray:none;stroke-opacity:1"
         id="ellipse8"
         cx="53.606113"
         cy="19.099754"
         rx="6.1498175"
         ry="4.6123629"
         transform="rotate(6.7098368)" />
      <ellipse
         style="fill:#999999;fill-opacity:1;stroke:none;stroke-width:1.5;stroke-linecap:round;stroke-linejoin:round;stroke-dasharray:none;stroke-opacity:1"
         id="ellipse9"
         cx="49.020058"
         cy="29.656134"
         rx="6.1498175"
         ry="4.6123629"
         transform="rotate(6.7098368)" />
      <ellipse
         style="fill:#999999;fill-opacity:1;stroke:none;stroke-width:1.5;stroke-linecap:round;stroke-linejoin:round;stroke-dasharray:none;stroke-opacity:1"
         id="ellipse10"
         cx="51.503288"
         cy="39.927204"
         rx="6.1498175"
         ry="4.6123629"
         transform="rotate(6.7098368)" />
      <ellipse
         style="fill:#999999;fill-opacity:1;stroke:none;stroke-width:1.5;stroke-linecap:round;stroke-linejoin:round;stroke-dasharray:none;stroke-opacity:1"
         id="ellipse11"
         cx="41.415459"
         cy="64.995224"
         rx="6.1498175"
         ry="4.6123629"
         transform="rotate(-13.397741)" />
      <ellipse
         style="fill:#999999;fill-opacity:1;stroke:none;stroke-width:1.5;stroke-linecap:round;stroke-linejoin:round;stroke-dasharray:none;stroke-opacity:1"
         id="ellipse12"
         cx="57.342491"
         cy="-29.669611"
         rx="6.1498175"
         ry="4.6123629"
         transform="rotate(44.54876)" />
    </g>
    <g
       id="g15"
       style="fill:#b3b3b3;fill-opacity:1;stroke:#4c9b00;stroke-opacity:1"
       transform="matrix(2.317371,0,0,2.317371,-60.474621,4.5519457)">
      <path
         d="m 134.63583,53.276068 q 0,0.923731 -0.32657,1.716833 -0.31724,0.783772 -0.89574,1.36227 -0.71846,0.718457 -1.69817,1.082351 -0.97972,0.354564 -2.47262,0.354564 h -1.84746 v 5.178491 h -1.84746 V 49.077291 h 3.76957 q 1.2503,0 2.11805,0.214604 0.86775,0.205274 1.53955,0.653143 0.7931,0.531845 1.22231,1.324948 0.43854,0.793102 0.43854,2.006082 z m -1.92211,0.04665 q 0,-0.718457 -0.25192,-1.250303 -0.25193,-0.531845 -0.76511,-0.867747 -0.44787,-0.289249 -1.02637,-0.410547 -0.56917,-0.130628 -1.44625,-0.130628 h -1.8288 v 5.551716 h 1.55821 q 1.11968,0 1.81947,-0.195943 0.6998,-0.205274 1.13834,-0.643813 0.43854,-0.447869 0.61582,-0.942392 0.18661,-0.494522 0.18661,-1.110343 z"
         id="path13"
         style="font-size:19.1091px;font-family:Sans;-inkscape-font-specification:Sans;stroke:#4c9b00;stroke-width:2.25689;stroke-linecap:round;stroke-linejoin:round;stroke-opacity:1"
         transform="matrix(0.92756231,0,-0.42292988,1.0780947,0,0)"
         aria-label="P" />
      <path
         d="m 113.4936,56.817739 q 0,0.753443 -0.16743,1.316199 -0.16278,0.558105 -0.5395,0.930176 -0.35812,0.353466 -0.83716,0.516247 -0.47904,0.162781 -1.11621,0.162781 -0.65112,0 -1.13481,-0.172083 -0.4837,-0.172082 -0.81391,-0.506945 -0.37672,-0.381372 -0.54415,-0.920874 -0.16278,-0.539502 -0.16278,-1.325501 v -4.143933 h 0.92087 v 4.190442 q 0,0.562756 0.0744,0.888318 0.0791,0.325561 0.26045,0.590661 0.20463,0.302308 0.55345,0.455787 0.35347,0.153479 0.84646,0.153479 0.49764,0 0.84646,-0.148829 0.34882,-0.153479 0.55811,-0.460437 0.18138,-0.2651 0.25579,-0.604614 0.0791,-0.344165 0.0791,-0.851111 v -4.213696 h 0.92087 z"
         id="path14"
         style="font-size:9.525px;font-family:Sans;-inkscape-font-specification:Sans;stroke:#4c9b00;stroke-width:1.5;stroke-linecap:round;stroke-linejoin:round;stroke-opacity:1"
         transform="skewX(-21.41977)"
         aria-label="U" />
      <path
         d="m 93.144433,66.213997 q 0,0.404626 -0.190686,0.799951 -0.186035,0.395325 -0.525549,0.669727 -0.37207,0.297656 -0.869714,0.465088 -0.492993,0.167431 -1.190625,0.167431 -0.748792,0 -1.348755,-0.139526 -0.595313,-0.139527 -1.213879,-0.413928 v -1.153418 h 0.06511 q 0.525549,0.437182 1.213879,0.674377 0.68833,0.237195 1.292945,0.237195 0.855761,0 1.330151,-0.320911 0.47904,-0.32091 0.47904,-0.855761 0,-0.460437 -0.227893,-0.679029 -0.223242,-0.218591 -0.683679,-0.339514 -0.348816,-0.09302 -0.758093,-0.153479 -0.404627,-0.06046 -0.860413,-0.153479 -0.920874,-0.195337 -1.367358,-0.665076 -0.441834,-0.474389 -0.441834,-1.232482 0,-0.869715 0.734839,-1.423169 0.734839,-0.558106 1.865003,-0.558106 0.730188,0 1.339453,0.139527 0.609265,0.139526 1.079004,0.344165 v 1.088305 h -0.06511 q -0.395324,-0.334863 -1.041797,-0.553454 -0.641821,-0.223242 -1.316198,-0.223242 -0.73949,0 -1.190625,0.306958 -0.446484,0.306958 -0.446484,0.790649 0,0.432532 0.223242,0.679028 0.223242,0.246497 0.785998,0.376721 0.297656,0.06511 0.84646,0.15813 0.548804,0.09302 0.930176,0.190686 0.772046,0.204639 1.16272,0.618567 0.390673,0.413928 0.390673,1.158069 z m 6.418213,-4.12998 h -2.474268 v 6.106603 h -0.920874 v -6.106603 h -2.474267 v -0.818555 h 5.869409 z m 5.860104,-0.02326 q 0.42323,0.465088 0.64648,1.139466 0.22789,0.674377 0.22789,1.530139 0,0.855761 -0.23255,1.53479 -0.22789,0.674377 -0.64182,1.125512 -0.42788,0.469739 -1.01389,0.706934 -0.58136,0.237195 -1.33015,0.237195 -0.73019,0 -1.33015,-0.241846 -0.59531,-0.241846 -1.01389,-0.702283 -0.41858,-0.460437 -0.64647,-1.130163 -0.223247,-0.669727 -0.223247,-1.530139 0,-0.84646 0.223247,-1.516187 0.22324,-0.674377 0.65112,-1.153418 0.40928,-0.455786 1.01389,-0.697632 0.60926,-0.241845 1.3255,-0.241845 0.74414,0 1.3348,0.246496 0.59531,0.241846 1.00924,0.692981 z m -0.0837,2.669605 q 0,-1.348755 -0.60462,-2.078943 -0.60461,-0.734839 -1.65106,-0.734839 -1.05575,0 -1.66036,0.734839 -0.59997,0.730188 -0.59997,2.078943 0,1.362707 0.61392,2.088244 0.61392,0.720886 1.64641,0.720886 1.0325,0 1.64176,-0.720886 0.61392,-0.725537 0.61392,-2.088244 z m 8.58552,3.460253 h -0.92087 v -5.967077 l -1.92547,4.060217 h -0.5488 l -1.91151,-4.060217 v 5.967077 h -0.86042 v -6.925158 h 1.25574 l 1.8464,3.855578 1.78594,-3.855578 h 1.27899 z"
         id="path15"
         style="font-size:9.525px;font-family:Sans;-inkscape-font-specification:Sans;stroke:#4c9b00;stroke-width:1.5;stroke-linecap:round;stroke-linejoin:round;stroke-opacity:1"
         transform="skewX(-21.41977)"
         aria-label="STOM" />
    </g>
    <g
       id="g13"
       style="fill:#b3b3b3;fill-opacity:1;stroke:#75ee00;stroke-opacity:1"
       transform="matrix(2.317371,0,0,2.317371,-61.700896,3.3256697)">
      <path
         d="m 134.63583,53.276068 q 0,0.923731 -0.32657,1.716833 -0.31724,0.783772 -0.89574,1.36227 -0.71846,0.718457 -1.69817,1.082351 -0.97972,0.354564 -2.47262,0.354564 h -1.84746 v 5.178491 h -1.84746 V 49.077291 h 3.76957 q 1.2503,0 2.11805,0.214604 0.86775,0.205274 1.53955,0.653143 0.7931,0.531845 1.22231,1.324948 0.43854,0.793102 0.43854,2.006082 z m -1.92211,0.04665 q 0,-0.718457 -0.25192,-1.250303 -0.25193,-0.531845 -0.76511,-0.867747 -0.44787,-0.289249 -1.02637,-0.410547 -0.56917,-0.130628 -1.44625,-0.130628 h -1.8288 v 5.551716 h 1.55821 q 1.11968,0 1.81947,-0.195943 0.6998,-0.205274 1.13834,-0.643813 0.43854,-0.447869 0.61582,-0.942392 0.18661,-0.494522 0.18661,-1.110343 z"
         id="text1"
         style="font-size:19.1091px;font-family:Sans;-inkscape-font-specification:Sans;stroke:#75ee00;stroke-width:2.25689;stroke-linecap:round;stroke-linejoin:round;stroke-opacity:1"
         transform="matrix(0.92756231,0,-0.42292988,1.0780947,0,0)"
         aria-label="P" />
      <path
         d="m 113.4936,56.817739 q 0,0.753443 -0.16743,1.316199 -0.16278,0.558105 -0.5395,0.930176 -0.35812,0.353466 -0.83716,0.516247 -0.47904,0.162781 -1.11621,0.162781 -0.65112,0 -1.13481,-0.172083 -0.4837,-0.172082 -0.81391,-0.506945 -0.37672,-0.381372 -0.54415,-0.920874 -0.16278,-0.539502 -0.16278,-1.325501 v -4.143933 h 0.92087 v 4.190442 q 0,0.562756 0.0744,0.888318 0.0791,0.325561 0.26045,0.590661 0.20463,0.302308 0.55345,0.455787 0.35347,0.153479 0.84646,0.153479 0.49764,0 0.84646,-0.148829 0.34882,-0.153479 0.55811,-0.460437 0.18138,-0.2651 0.25579,-0.604614 0.0791,-0.344165 0.0791,-0.851111 v -4.213696 h 0.92087 z"
         id="text2"
         style="font-size:9.525px;font-family:Sans;-inkscape-font-specification:Sans;stroke:#75ee00;stroke-width:1.5;stroke-linecap:round;stroke-linejoin:round;stroke-opacity:1"
         transform="skewX(-21.41977)"
         aria-label="U" />
      <path
         d="m 93.144433,66.213997 q 0,0.404626 -0.190686,0.799951 -0.186035,0.395325 -0.525549,0.669727 -0.37207,0.297656 -0.869714,0.465088 -0.492993,0.167431 -1.190625,0.167431 -0.748792,0 -1.348755,-0.139526 -0.595313,-0.139527 -1.213879,-0.413928 v -1.153418 h 0.06511 q 0.525549,0.437182 1.213879,0.674377 0.68833,0.237195 1.292945,0.237195 0.855761,0 1.330151,-0.320911 0.47904,-0.32091 0.47904,-0.855761 0,-0.460437 -0.227893,-0.679029 -0.223242,-0.218591 -0.683679,-0.339514 -0.348816,-0.09302 -0.758093,-0.153479 -0.404627,-0.06046 -0.860413,-0.153479 -0.920874,-0.195337 -1.367358,-0.665076 -0.441834,-0.474389 -0.441834,-1.232482 0,-0.869715 0.734839,-1.423169 0.734839,-0.558106 1.865003,-0.558106 0.730188,0 1.339453,0.139527 0.609265,0.139526 1.079004,0.344165 v 1.088305 h -0.06511 q -0.395324,-0.334863 -1.041797,-0.553454 -0.641821,-0.223242 -1.316198,-0.223242 -0.73949,0 -1.190625,0.306958 -0.446484,0.306958 -0.446484,0.790649 0,0.432532 0.223242,0.679028 0.223242,0.246497 0.785998,0.376721 0.297656,0.06511 0.84646,0.15813 0.548804,0.09302 0.930176,0.190686 0.772046,0.204639 1.16272,0.618567 0.390673,0.413928 0.390673,1.158069 z m 6.418213,-4.12998 h -2.474268 v 6.106603 h -0.920874 v -6.106603 h -2.474267 v -0.818555 h 5.869409 z m 5.860104,-0.02326 q 0.42323,0.465088 0.64648,1.139466 0.22789,0.674377 0.22789,1.530139 0,0.855761 -0.23255,1.53479 -0.22789,0.674377 -0.64182,1.125512 -0.42788,0.469739 -1.01389,0.706934 -0.58136,0.237195 -1.33015,0.237195 -0.73019,0 -1.33015,-0.241846 -0.59531,-0.241846 -1.01389,-0.702283 -0.41858,-0.460437 -0.64647,-1.130163 -0.223247,-0.669727 -0.223247,-1.530139 0,-0.84646 0.223247,-1.516187 0.22324,-0.674377 0.65112,-1.153418 0.40928,-0.455786 1.01389,-0.697632 0.60926,-0.241845 1.3255,-0.241845 0.74414,0 1.3348,0.246496 0.59531,0.241846 1.00924,0.692981 z m -0.0837,2.669605 q 0,-1.348755 -0.60462,-2.078943 -0.60461,-0.734839 -1.65106,-0.734839 -1.05575,0 -1.66036,0.734839 -0.59997,0.730188 -0.59997,2.078943 0,1.362707 0.61392,2.088244 0.61392,0.720886 1.64641,0.720886 1.0325,0 1.64176,-0.720886 0.61392,-0.725537 0.61392,-2.088244 z m 8.58552,3.460253 h -0.92087 v -5.967077 l -1.92547,4.060217 h -0.5488 l -1.91151,-4.060217 v 5.967077 h -0.86042 v -6.925158 h 1.25574 l 1.8464,3.855578 1.78594,-3.855578 h 1.27899 z"
         id="text3"
         style="font-size:9.525px;font-family:Sans;-inkscape-font-specification:Sans;stroke:#75ee00;stroke-width:1.5;stroke-linecap:round;stroke-linejoin:round;stroke-opacity:1"
         transform="skewX(-21.41977)"
         aria-label="STOM" />
    </g>
  </g>
</svg>
